<svg xmlns="http://www.w3.org/2000/svg" version="1.1" xmlns:xlink="http://www.w3.org/1999/xlink" xmlns:svgjs="http://svgjs.dev/svgjs" width="1000" height="750" viewBox="0 0 1000 750"><rect width="1000" height="750" fill="#000000"></rect><g transform="matrix(0.834,0,0,0.834,83,114.375)"><svg viewBox="0 0 576 360" data-background-color="#ffffff" preserveAspectRatio="xMidYMid meet" height="625" width="1000" xmlns="http://www.w3.org/2000/svg" xmlns:xlink="http://www.w3.org/1999/xlink"><g id="tight-bounds" transform="matrix(1,0,0,1,0,0)"><svg viewBox="0 0 576 360" height="360" width="576"><g><svg></svg></g><g><svg viewBox="0 0 576 360" height="360" width="576"><g><path d="M132.115 90l155.885-90 155.885 90v180l-155.885 90-155.885-90zM146.725 261.565l141.275 81.566 141.275-81.566v-163.13l-141.275-81.566-141.275 81.566z" fill="#ffffff" fill-rule="nonzero" stroke="none" stroke-width="1" stroke-linecap="butt" stroke-linejoin="miter" stroke-miterlimit="10" stroke-dasharray="" stroke-dashoffset="0" font-family="none" font-weight="none" font-size="none" text-anchor="none" style="mix-blend-mode: normal" data-fill-palette-color="tertiary"></path></g><g transform="matrix(1,0,0,1,232.27659574468086,99)"><svg viewBox="0 0 111.44680851063828 162" height="162" width="111.44680851063828"><g><svg viewBox="0 0 111.44680851063828 162" height="162" width="111.44680851063828"><g><svg viewBox="0 0 111.4468085106383 162.00000000000003" height="162" width="111.44680851063828"><g><svg viewBox="0 0 111.4468085106383 162.00000000000003" height="162.00000000000003" width="111.4468085106383"><g id="textblocktransform"><svg viewBox="0 0 111.4468085106383 162.00000000000003" height="162.00000000000003" width="111.4468085106383" id="textblock"><g><svg viewBox="0 0 111.4468085106383 162.00000000000003" height="162.00000000000003" width="111.4468085106383"><g transform="matrix(1,0,0,1,0,0)"><svg width="111.4468085106383" viewBox="4.5 -34.95 24.25 35.25" height="162.00000000000003" data-palette-color="#000000"><path d="M12.8 0.3L12.8 0.3Q11.95 0.3 10.83 0.23 9.7 0.15 8.53 0.03 7.35-0.1 6.3-0.28 5.25-0.45 4.5-0.65L4.5-0.65 4.5-34Q5.4-34.25 6.5-34.43 7.6-34.6 8.78-34.73 9.95-34.85 11.08-34.9 12.2-34.95 13.15-34.95L13.15-34.95Q15.95-34.95 18.48-34.5 21-34.05 22.9-33 24.8-31.95 25.93-30.23 27.05-28.5 27.05-25.95L27.05-25.95Q27.05-23.15 25.63-21.18 24.2-19.2 21.8-18.45L21.8-18.45Q23.3-18.1 24.55-17.45 25.8-16.8 26.75-15.78 27.7-14.75 28.23-13.28 28.75-11.8 28.75-9.75L28.75-9.75Q28.75-4.85 24.85-2.27 20.95 0.3 12.8 0.3ZM15.1-16.6L7.9-16.6 7.9-2.95Q8.65-2.85 10.15-2.73 11.65-2.6 13.2-2.6L13.2-2.6Q15.5-2.6 17.68-2.9 19.85-3.2 21.5-4 23.15-4.8 24.15-6.2 25.15-7.6 25.15-9.8L25.15-9.8Q25.15-11.8 24.45-13.13 23.75-14.45 22.45-15.23 21.15-16 19.28-16.3 17.4-16.6 15.1-16.6L15.1-16.6ZM7.9-31.7L7.9-19.5 14.5-19.5Q16.35-19.5 18-19.78 19.65-20.05 20.88-20.78 22.1-21.5 22.8-22.73 23.5-23.95 23.5-25.85L23.5-25.85Q23.5-27.55 22.75-28.73 22-29.9 20.63-30.65 19.25-31.4 17.35-31.73 15.45-32.05 13.15-32.05L13.15-32.05Q11.3-32.05 10.03-31.95 8.75-31.85 7.9-31.7L7.9-31.7Z" opacity="1" transform="matrix(1,0,0,1,0,0)" fill="#ffffff" class="wordmark-text-0" data-fill-palette-color="primary" id="text-0"></path></svg></g></svg></g></svg></g></svg></g></svg></g></svg></g></svg></g></svg></g><defs></defs></svg><rect width="320" height="360" fill="none" stroke="none" visibility="hidden"></rect></g></svg></g></svg>