<svg xmlns="http://www.w3.org/2000/svg" xmlns:xlink="http://www.w3.org/1999/xlink" xmlns:svgjs="http://svgjs.dev/svgjs" version="1.1" viewBox="458.73 0 1082.53 1250"><g transform="matrix(1,0,0,1,0,0)"><svg xmlns="http://www.w3.org/2000/svg" xmlns:xlink="http://www.w3.org/1999/xlink" viewBox="0 0 576 360" data-background-color="#111111" preserveAspectRatio="xMidYMid meet" height="1250" width="2000"><g id="tight-bounds" transform="matrix(1,0,0,1,0,0)"><svg viewBox="0 0 576 360" height="360" width="576"><g><svg/></g><g><svg viewBox="0 0 576 360" height="360" width="576"><g><path d="M132.115 90l155.885-90 155.885 90v180l-155.885 90-155.885-90z" fill="#111111" fill-rule="nonzero" stroke="none" stroke-width="1" stroke-linecap="butt" stroke-linejoin="miter" stroke-miterlimit="10" stroke-dasharray="" stroke-dashoffset="0" font-family="none" font-weight="none" font-size="none" text-anchor="none" style="mix-blend-mode: normal" data-fill-palette-color="tertiary"/></g><g transform="matrix(1,0,0,1,227.82203389830508,99)"><svg viewBox="0 0 120.35593220338984 162" height="162" width="120.35593220338984"><g><svg viewBox="0 0 120.35593220338984 162" height="162" width="120.35593220338984"><g><svg viewBox="0 0 120.35593220338984 162" height="162" width="120.35593220338984"><g><svg viewBox="0 0 120.35593220338984 162" height="162" width="120.35593220338984"><g id="textblocktransform"><svg viewBox="0 0 120.35593220338984 162" height="162" width="120.35593220338984" id="textblock"><g><svg viewBox="0 0 120.35593220338984 162" height="162" width="120.35593220338984"><g transform="matrix(1,0,0,1,0,0)"><svg width="120.35593220338984" viewBox="4.15 -35 26.299999999999997 35.4" height="162" data-palette-color="#ffffff"><path d="M14.6 0.4L14.6 0.4Q11.85 0.4 9.05 0.23 6.25 0.05 4.15-0.5L4.15-0.5 4.15-34.15Q5.25-34.35 6.5-34.52 7.75-34.7 9.05-34.8 10.35-34.9 11.63-34.95 12.9-35 14.05-35L14.05-35Q17.2-35 19.9-34.52 22.6-34.05 24.58-32.95 26.55-31.85 27.65-30.05 28.75-28.25 28.75-25.6L28.75-25.6Q28.75-23.15 27.58-21.4 26.4-19.65 24.3-18.6L24.3-18.6Q27.45-17.55 28.95-15.5 30.45-13.45 30.45-10.3L30.45-10.3Q30.45-4.95 26.55-2.27 22.65 0.4 14.6 0.4ZM15.9-15.6L10.35-15.6 10.35-5.05Q11.4-4.95 12.6-4.9 13.8-4.85 14.8-4.85L14.8-4.85Q16.75-4.85 18.43-5.1 20.1-5.35 21.33-5.98 22.55-6.6 23.28-7.65 24-8.7 24-10.35L24-10.35Q24-13.3 21.85-14.45 19.7-15.6 15.9-15.6L15.9-15.6ZM10.35-29.65L10.35-20.55 14.8-20.55Q18.4-20.55 20.45-21.58 22.5-22.6 22.5-25.25L22.5-25.25Q22.5-27.75 20.38-28.8 18.25-29.85 14.85-29.85L14.85-29.85Q13.4-29.85 12.28-29.8 11.15-29.75 10.35-29.65L10.35-29.65Z" opacity="1" transform="matrix(1,0,0,1,0,0)" fill="#ffffff" class="wordmark-text-0" data-fill-palette-color="quaternary" id="text-0"/></svg></g></svg></g></svg></g></svg></g></svg></g></svg></g></svg></g></svg></g><defs/></svg><rect width="576" height="360" fill="none" stroke="none" visibility="hidden"/></g></svg></g></svg>