<svg xmlns="http://www.w3.org/2000/svg" version="1.1" xmlns:xlink="http://www.w3.org/1999/xlink" xmlns:svgjs="http://svgjs.dev/svgjs" width="1000" height="1125" viewBox="0 0 1000 1125"><g transform="matrix(1,0,0,1,0,0)"><svg viewBox="0 0 320 360" data-background-color="#ffffff" preserveAspectRatio="xMidYMid meet" height="1125" width="1000" xmlns="http://www.w3.org/2000/svg" xmlns:xlink="http://www.w3.org/1999/xlink"><g id="tight-bounds" transform="matrix(1,0,0,1,0,0)"><svg viewBox="0 0 320 360" height="360" width="320"><g><svg></svg></g><g><svg viewBox="0 0 320 360" height="360" width="320"><g><path d="M297.491 100.645c-12.426-21.51-112.674-79.355-137.491-79.355-24.817 0-125.028 57.845-137.491 79.355-11.591 20.02-11.591 138.726 0 158.746 12.463 21.474 112.674 79.319 137.491 79.319 24.817 0 125.064-57.845 137.491-79.355 11.591-20.02 11.591-138.69 0-158.71zM309.481 93.705c-14.461-24.998-119.469-86.295-149.481-86.295-30.012 0-135.02 61.297-149.481 86.295-14.025 24.199-14.025 148.391 0 172.59 14.461 24.998 119.469 86.295 149.481 86.295 30.012 0 135.02-61.297 149.481-86.259 14.025-24.235 14.025-148.427 0-172.626zM300.906 261.353c-12.753 22.055-115.472 81.317-140.906 81.318-25.434 0-128.153-59.298-140.906-81.354-11.881-20.529-11.881-142.178 0-162.707 12.753-22.019 115.472-81.281 140.906-81.281 25.434 0 128.153 59.298 140.906 81.318 11.881 20.529 11.881 142.178 0 162.706z" fill="#77d4fc" fill-rule="nonzero" stroke="none" stroke-width="1" stroke-linecap="butt" stroke-linejoin="miter" stroke-miterlimit="10" stroke-dasharray="" stroke-dashoffset="0" font-family="none" font-weight="none" font-size="none" text-anchor="none" style="mix-blend-mode: normal" data-fill-palette-color="tertiary"></path></g><g transform="matrix(1,0,0,1,81.3142857142857,90)"><svg viewBox="0 0 157.3714285714286 180" height="180" width="157.3714285714286"><g><svg viewBox="0 0 157.3714285714286 180" height="180" width="157.3714285714286"><g><svg viewBox="0 0 157.3714285714286 180" height="180" width="157.3714285714286"><g><svg viewBox="0 0 157.3714285714286 180" height="180" width="157.3714285714286"><g id="textblocktransform"><svg viewBox="0 0 157.3714285714286 180" height="180" width="157.3714285714286" id="textblock"><g><svg viewBox="0 0 157.3714285714286 180" height="180" width="157.3714285714286"><g transform="matrix(1,0,0,1,0,0)"><svg width="157.3714285714286" viewBox="1.05 -35 30.599999999999998 35" height="180" data-palette-color="#ffffff"><path d="M1.05-34.05L1.05-35 16-35Q22.95-35 26.43-33.13 29.9-31.25 29.9-26.8L29.9-26.8Q29.9-19.95 21.65-18.6L21.65-18.6 21.65-18.5Q31.65-17.25 31.65-9.8L31.65-9.8Q31.65-4.35 27.55-2.18 23.45 0 15.75 0L15.75 0 1.05 0 1.05-0.95 4.3-0.95 4.3-34.05 1.05-34.05ZM15.2-17.7L14.05-17.7 14.05-0.95 16.4-0.95Q19.15-0.95 20.25-2.85 21.35-4.75 21.35-8.45L21.35-8.45 21.35-11.1Q21.35-14.4 20-16.05 18.65-17.7 15.2-17.7L15.2-17.7ZM15.65-34.05L14.05-34.05 14.05-18.65 15.35-18.65Q17.95-18.65 18.98-20.23 20-21.8 20-25.05L20-25.05 20-27.4Q20-31.1 19.1-32.58 18.2-34.05 15.65-34.05L15.65-34.05Z" opacity="1" transform="matrix(1,0,0,1,0,0)" fill="#ffffff" class="wordmark-text-0" data-fill-palette-color="quaternary" id="text-0"></path></svg></g></svg></g></svg></g></svg></g></svg></g></svg></g></svg></g></svg></g><defs></defs></svg><rect width="320" height="360" fill="none" stroke="none" visibility="hidden"></rect></g></svg></g></svg>